<svg width="0" height="0" class="hidden">
  <symbol fill="none" xmlns="http://www.w3.org/2000/svg" viewBox="0 0 24 24" id="file-attachment">
    <path d="M20 7V6.8C20 5.11984 20 4.27976 19.673 3.63803C19.3854 3.07354 18.9265 2.6146 18.362 2.32698C17.7202 2 16.8802 2 15.2 2H8.8C7.11984 2 6.27976 2 5.63803 2.32698C5.07354 2.6146 4.6146 3.07354 4.32698 3.63803C4 4.27976 4 5.11984 4 6.8V17.2C4 18.8802 4 19.7202 4.32698 20.362C4.6146 20.9265 5.07354 21.3854 5.63803 21.673C6.27976 22 7.11984 22 8.8 22H12.5M12.5 11H8M11.5 15H8M16 7H8M18 18V12.5C18 11.6716 18.6716 11 19.5 11C20.3284 11 21 11.6716 21 12.5V18C21 19.6569 19.6569 21 18 21C16.3431 21 15 19.6569 15 18V14" stroke="currentColor" stroke-width="2" stroke-linecap="round" stroke-linejoin="round"></path>
  </symbol>

  <symbol xmlns="http://www.w3.org/2000/svg" viewBox="0 0 24 24" id="filter">
    <path d="M7.5 12H17.5M5 7H20M10 17H15" stroke="currentColor" stroke-width="2" stroke-linecap="round" stroke-linejoin="round"></path>
  </symbol>

  <symbol fill="none" xmlns="http://www.w3.org/2000/svg" viewBox="0 0 24 24" id="globe">
    <path d="M12 2C14.5013 4.73835 15.9228 8.29203 16 12C15.9228 15.708 14.5013 19.2616 12 22M12 2C9.49872 4.73835 8.07725 8.29203 8 12C8.07725 15.708 9.49872 19.2616 12 22M12 2C6.47715 2 2 6.47715 2 12C2 17.5228 6.47715 22 12 22M12 2C17.5228 2 22 6.47715 22 12C22 17.5228 17.5228 22 12 22M2.50002 9H21.5M2.5 15H21.5" stroke="currentColor" stroke-width="2" stroke-linecap="round" stroke-linejoin="round"></path>
  </symbol>

  <symbol xmlns="http://www.w3.org/2000/svg" viewBox="0 0 24 24" id="google">
    <path d="M22.56 12.25C22.56 11.47 22.49 10.72 22.36 10H12V14.26H17.92C17.66 15.63 16.88 16.79 15.71 17.57V20.34H19.28C21.36 18.42 22.56 15.6 22.56 12.25Z" fill="#4285F4"></path>
    <path d="M11.9997 23C14.9697 23 17.4597 22.02 19.2797 20.34L15.7097 17.57C14.7297 18.23 13.4797 18.63 11.9997 18.63C9.13969 18.63 6.70969 16.7 5.83969 14.1H2.17969V16.94C3.98969 20.53 7.69969 23 11.9997 23Z" fill="#34A853"></path>
    <path d="M5.84 14.09C5.62 13.43 5.49 12.73 5.49 12C5.49 11.27 5.62 10.57 5.84 9.91001V7.07001H2.18C1.43 8.55001 1 10.22 1 12C1 13.78 1.43 15.45 2.18 16.93L5.03 14.71L5.84 14.09Z" fill="#FBBC05"></path>
    <path d="M11.9997 5.38C13.6197 5.38 15.0597 5.94 16.2097 7.02L19.3597 3.87C17.4497 2.09 14.9697 1 11.9997 1C7.69969 1 3.98969 3.47 2.17969 7.07L5.83969 9.91C6.70969 7.31 9.13969 5.38 11.9997 5.38Z" fill="#EA4335"></path>
  </symbol>

  <symbol fill="none" xmlns="http://www.w3.org/2000/svg" viewBox="0 0 24 24" id="graduation-hat">
    <path d="M17 14.5001V11.4945C17 11.315 17 11.2253 16.9727 11.146C16.9485 11.076 16.9091 11.0122 16.8572 10.9592C16.7986 10.8993 16.7183 10.8592 16.5578 10.779L12 8.50006M4 9.50006V16.3067C4 16.6786 4 16.8645 4.05802 17.0274C4.10931 17.1713 4.1929 17.3016 4.30238 17.4082C4.42622 17.5287 4.59527 17.6062 4.93335 17.7612L11.3334 20.6945C11.5786 20.8069 11.7012 20.8631 11.8289 20.8853C11.9421 20.9049 12.0579 20.9049 12.1711 20.8853C12.2988 20.8631 12.4214 20.8069 12.6666 20.6945L19.0666 17.7612C19.4047 17.6062 19.5738 17.5287 19.6976 17.4082C19.8071 17.3016 19.8907 17.1713 19.942 17.0274C20 16.8645 20 16.6786 20 16.3067V9.50006M2 8.50006L11.6422 3.67895C11.7734 3.61336 11.839 3.58056 11.9078 3.56766C11.9687 3.55622 12.0313 3.55622 12.0922 3.56766C12.161 3.58056 12.2266 3.61336 12.3578 3.67895L22 8.50006L12.3578 13.3212C12.2266 13.3868 12.161 13.4196 12.0922 13.4325C12.0313 13.4439 11.9687 13.4439 11.9078 13.4325C11.839 13.4196 11.7734 13.3868 11.6422 13.3212L2 8.50006Z" stroke="currentColor" stroke-width="2" stroke-linecap="round" stroke-linejoin="round"></path>
  </symbol>

  <symbol xmlns="http://www.w3.org/2000/svg" viewBox="0 0 48 49" id="graph">
    <path d="M44 14.6666L28.2627 30.4039C27.4707 31.1959 27.0747 31.5919 26.618 31.7403C26.2163 31.8708 25.7837 31.8708 25.382 31.7403C24.9253 31.5919 24.5293 31.1959 23.7373 30.4039L18.2627 24.9294C17.4707 24.1373 17.0747 23.7413 16.618 23.5929C16.2163 23.4624 15.7837 23.4624 15.382 23.5929C14.9253 23.7413 14.5293 24.1373 13.7373 24.9294L4 34.6666M44 14.6666H30M44 14.6666V28.6666" stroke="currentColor" stroke-width="2" stroke-linecap="round" stroke-linejoin="round"></path>
  </symbol>

  <symbol  xmlns="http://www.w3.org/2000/svg" viewBox="0 0 24 24" id="hamburger">
    <path d="M5 7H20.5" stroke="currentColor" stroke-width="2"></path>
    <path d="M5 12H14" stroke="currentColor" stroke-width="2"></path>
    <path d="M5 17H18" stroke="currentColor" stroke-width="2"></path>
  </symbol>

  <symbol fill="none" xmlns="http://www.w3.org/2000/svg" viewBox="0 0 24 24" id="heart">
    <path fill-rule="evenodd" clip-rule="evenodd" d="M11.9932 5.13581C9.9938 2.7984 6.65975 2.16964 4.15469 4.31001C1.64964 6.45038 1.29697 10.029 3.2642 12.5604C4.89982 14.6651 9.84977 19.1041 11.4721 20.5408C11.6536 20.7016 11.7444 20.7819 11.8502 20.8135C11.9426 20.8411 12.0437 20.8411 12.1361 20.8135C12.2419 20.7819 12.3327 20.7016 12.5142 20.5408C14.1365 19.1041 19.0865 14.6651 20.7221 12.5604C22.6893 10.029 22.3797 6.42787 19.8316 4.31001C17.2835 2.19216 13.9925 2.7984 11.9932 5.13581Z" stroke="currentColor" stroke-width="2" stroke-linecap="round" stroke-linejoin="round"></path>
  </symbol>

  <symbol xmlns="http://www.w3.org/2000/svg" viewBox="0 0 24 24" id="horizontal-dots">
    <path d="M12 13C12.5523 13 13 12.5523 13 12C13 11.4477 12.5523 11 12 11C11.4477 11 11 11.4477 11 12C11 12.5523 11.4477 13 12 13Z" stroke="currentColor" stroke-width="2" stroke-linecap="round" stroke-linejoin="round"></path>
    <path d="M19 13C19.5523 13 20 12.5523 20 12C20 11.4477 19.5523 11 19 11C18.4477 11 18 11.4477 18 12C18 12.5523 18.4477 13 19 13Z" stroke="currentColor" stroke-width="2" stroke-linecap="round" stroke-linejoin="round"></path>
    <path d="M5 13C5.55228 13 6 12.5523 6 12C6 11.4477 5.55228 11 5 11C4.44772 11 4 11.4477 4 12C4 12.5523 4.44772 13 5 13Z" stroke="currentColor" stroke-width="2" stroke-linecap="round" stroke-linejoin="round"></path>
  </symbol>

  <symbol fill="none" xmlns="http://www.w3.org/2000/svg" viewBox="0 0 25 24" id="left-chevron">
    <path d="M15.5 18L9.5 12L15.5 6" stroke="currentColor" stroke-width="2" stroke-linecap="round" stroke-linejoin="round"></path>
  </symbol>

  <symbol fill="none" xmlns="http://www.w3.org/2000/svg" viewBox="0 0 24 24" id="mail">
    <path d="M2 7L10.1649 12.7154C10.8261 13.1783 11.1567 13.4097 11.5163 13.4993C11.8339 13.5785 12.1661 13.5785 12.4837 13.4993C12.8433 13.4097 13.1739 13.1783 13.8351 12.7154L22 7M6.8 20H17.2C18.8802 20 19.7202 20 20.362 19.673C20.9265 19.3854 21.3854 18.9265 21.673 18.362C22 17.7202 22 16.8802 22 15.2V8.8C22 7.11984 22 6.27976 21.673 5.63803C21.3854 5.07354 20.9265 4.6146 20.362 4.32698C19.7202 4 18.8802 4 17.2 4H6.8C5.11984 4 4.27976 4 3.63803 4.32698C3.07354 4.6146 2.6146 5.07354 2.32698 5.63803C2 6.27976 2 7.11984 2 8.8V15.2C2 16.8802 2 17.7202 2.32698 18.362C2.6146 18.9265 3.07354 19.3854 3.63803 19.673C4.27976 20 5.11984 20 6.8 20Z" stroke="currentColor" stroke-width="2" stroke-linecap="round" stroke-linejoin="round"></path>
  </symbol>

  <symbol xmlns="http://www.w3.org/2000/svg" viewBox="0 0 48 48" id="microsoft">
    <path fill="#ff5722" d="M6 6H22V22H6z" transform="rotate(-180 14 14)"></path>
    <path fill="#4caf50" d="M26 6H42V22H26z" transform="rotate(-180 34 14)"></path>
    <path fill="#ffc107" d="M26 26H42V42H26z" transform="rotate(-180 34 34)"></path>
    <path fill="#03a9f4" d="M6 26H22V42H6z" transform="rotate(-180 14 34)"></path>
  </symbol>

  <symbol xmlns="http://www.w3.org/2000/svg" viewBox="0 0 46 45" id="not-image">
    <path d="M37.1775 5.77539H9.30254C7.82445 5.777 6.40737 6.36489 5.3622 7.41005C4.31704 8.45522 3.72915 9.8723 3.72754 11.3504V33.6504C3.72915 35.1285 4.31704 36.5456 5.3622 37.5907C6.40737 38.6359 7.82445 39.2238 9.30254 39.2254H37.1775C38.6556 39.2238 40.0727 38.6359 41.1179 37.5907C42.163 36.5456 42.7509 35.1285 42.7525 33.6504V11.3504C42.7509 9.8723 42.163 8.45522 41.1179 7.41005C40.0727 6.36489 38.6556 5.777 37.1775 5.77539V5.77539ZM30.2088 11.3504C31.0358 11.3504 31.8442 11.5956 32.5318 12.0551C33.2194 12.5145 33.7553 13.1675 34.0718 13.9315C34.3882 14.6956 34.471 15.5363 34.3097 16.3474C34.1484 17.1584 33.7501 17.9035 33.1654 18.4882C32.5806 19.073 31.8356 19.4712 31.0245 19.6326C30.2134 19.7939 29.3727 19.7111 28.6087 19.3946C27.8447 19.0781 27.1916 18.5422 26.7322 17.8546C26.2728 17.167 26.0275 16.3586 26.0275 15.5316C26.0287 14.4231 26.4696 13.3602 27.2535 12.5763C28.0374 11.7924 29.1002 11.3515 30.2088 11.3504V11.3504ZM9.30254 36.4379C8.56325 36.4379 7.85424 36.1442 7.33148 35.6215C6.80872 35.0987 6.51504 34.3897 6.51504 33.6504V27.7592L14.7765 20.4159C15.5736 19.7089 16.6102 19.3325 17.6752 19.3632C18.7401 19.394 19.7533 19.8296 20.5083 20.5814L26.166 26.2269L15.9551 36.4379H9.30254ZM39.965 33.6504C39.965 34.3897 39.6714 35.0987 39.1486 35.6215C38.6258 36.1442 37.9168 36.4379 37.1775 36.4379H19.8977L30.4745 25.8611C31.2233 25.2242 32.1736 24.8734 33.1566 24.8708C34.1396 24.8683 35.0918 25.2142 35.8439 25.8471L39.965 29.281V33.6504Z" fill="currentColor"></path>
  </symbol>

  <symbol fill="none" xmlns="http://www.w3.org/2000/svg" viewBox="0 0 24 24" id="percent">
    <path d="M9 9H9.01M15 15H15.01M16 8L8 16M9.5 9C9.5 9.27614 9.27614 9.5 9 9.5C8.72386 9.5 8.5 9.27614 8.5 9C8.5 8.72386 8.72386 8.5 9 8.5C9.27614 8.5 9.5 8.72386 9.5 9ZM15.5 15C15.5 15.2761 15.2761 15.5 15 15.5C14.7239 15.5 14.5 15.2761 14.5 15C14.5 14.7239 14.7239 14.5 15 14.5C15.2761 14.5 15.5 14.7239 15.5 15ZM22 12C22 17.5228 17.5228 22 12 22C6.47715 22 2 17.5228 2 12C2 6.47715 6.47715 2 12 2C17.5228 2 22 6.47715 22 12Z" stroke="currentColor" stroke-width="2" stroke-linecap="round" stroke-linejoin="round"></path>
  </symbol>

  <symbol fill="none" xmlns="http://www.w3.org/2000/svg" viewBox="0 0 41 40" id="physics">
    <path d="M20.4993 20.0002H20.5159M26.3918 25.8928C18.5813 33.7033 9.6115 37.3967 6.35714 34.1424C3.10277 30.888 6.79623 21.9182 14.6067 14.1077C22.4172 6.2972 31.387 2.60373 34.6414 5.8581C37.8958 9.11247 34.2023 18.0823 26.3918 25.8928ZM26.3918 14.1074C34.2022 21.9179 37.8957 30.8877 34.6413 34.1421C31.387 37.3964 22.4171 33.703 14.6066 25.8925C6.79616 18.082 3.1027 9.11217 6.35707 5.8578C9.61144 2.60343 18.5813 6.29689 26.3918 14.1074ZM21.3326 20.0002C21.3326 20.4605 20.9595 20.8336 20.4993 20.8336C20.039 20.8336 19.6659 20.4605 19.6659 20.0002C19.6659 19.54 20.039 19.1669 20.4993 19.1669C20.9595 19.1669 21.3326 19.54 21.3326 20.0002Z" stroke="currentColor" stroke-width="3.33333" stroke-linecap="round" stroke-linejoin="round"></path>
  </symbol>

  <symbol fill="none" id="play" xmlns="http://www.w3.org/2000/svg" viewBox="0 0 24 24">
    <path d="M5 4.98951C5 4.01835 5 3.53277 5.20249 3.2651C5.37889 3.03191 5.64852 2.88761 5.9404 2.87018C6.27544 2.85017 6.67946 3.11953 7.48752 3.65823L18.0031 10.6686C18.6708 11.1137 19.0046 11.3363 19.1209 11.6168C19.2227 11.8621 19.2227 12.1377 19.1209 12.383C19.0046 12.6635 18.6708 12.886 18.0031 13.3312L7.48752 20.3415C6.67946 20.8802 6.27544 21.1496 5.9404 21.1296C5.64852 21.1122 5.37889 20.9679 5.20249 20.7347C5 20.467 5 19.9814 5 19.0103V4.98951Z" stroke="currentColor" stroke-width="2" stroke-linecap="round" stroke-linejoin="round"></path>
  </symbol>

  <symbol id="plus" xmlns="http://www.w3.org/2000/svg" viewBox="0 0 24 24">
    <path d="M11.9995 5V19M4.99951 12H18.9995" stroke="currentColor" stroke-width="2" stroke-linecap="round" stroke-linejoin="round"></path>
  </symbol>

  <symbol xmlns="http://www.w3.org/2000/svg" viewBox="0 0 49 48" id="quotes">
    <path d="M9.666 34.642C7.606 32.454 6.5 30 6.5 26.022C6.5 19.022 11.414 12.748 18.56 9.646L20.346 12.402C13.676 16.01 12.372 20.692 11.852 23.644C12.926 23.088 14.332 22.894 15.71 23.022C19.318 23.356 22.162 26.318 22.162 30C22.162 31.8565 21.4245 33.637 20.1117 34.9497C18.799 36.2625 17.0185 37 15.162 37C14.1353 36.991 13.1207 36.7779 12.1771 36.3731C11.2336 35.9683 10.38 35.3798 9.666 34.642ZM29.666 34.642C27.606 32.454 26.5 30 26.5 26.022C26.5 19.022 31.414 12.748 38.56 9.646L40.346 12.402C33.676 16.01 32.372 20.692 31.852 23.644C32.926 23.088 34.332 22.894 35.71 23.022C39.318 23.356 42.162 26.318 42.162 30C42.162 31.8565 41.4245 33.637 40.1117 34.9497C38.799 36.2625 37.0185 37 35.162 37C34.1353 36.991 33.1207 36.7779 32.1771 36.3731C31.2336 35.9683 30.38 35.3798 29.666 34.642Z" fill="currentColor"></path>
  </symbol>

  <symbol fill="none" xmlns="http://www.w3.org/2000/svg" viewBox="0 0 25 24" id="right-chevron">
    <path d="M9.5 18L15.5 12L9.5 6" stroke="currentColor" stroke-width="2" stroke-linecap="round" stroke-linejoin="round"></path>
  </symbol>

  <symbol xmlns="http://www.w3.org/2000/svg" viewBox="0 0 17 17" id="search">
    <path fill-rule="evenodd" clip-rule="evenodd" d="M7 1.50039C5.54131 1.50039 4.14236 2.07985 3.11091 3.1113C2.07946 4.14275 1.5 5.5417 1.5 7.00039C1.5 8.45908 2.07946 9.85802 3.11091 10.8895C4.14236 11.9209 5.54131 12.5004 7 12.5004C8.45869 12.5004 9.85764 11.9209 10.8891 10.8895C11.9205 9.85802 12.5 8.45908 12.5 7.00039C12.5 5.5417 11.9205 4.14275 10.8891 3.1113C9.85764 2.07985 8.45869 1.50039 7 1.50039ZM1.61595e-08 7.00039C9.44369e-05 5.88106 0.268612 4.77807 0.783029 3.78395C1.29745 2.78983 2.04276 1.93356 2.95645 1.28698C3.87015 0.640403 4.92557 0.222361 6.0342 0.0679247C7.14282 -0.0865114 8.27232 0.027162 9.32794 0.399409C10.3836 0.771657 11.3345 1.39162 12.101 2.2073C12.8676 3.02298 13.4273 4.01059 13.7333 5.08728C14.0393 6.16397 14.0827 7.29834 13.8597 8.39524C13.6368 9.49214 13.154 10.5196 12.452 11.3914L15.78 14.7204C15.8537 14.789 15.9128 14.8718 15.9538 14.9638C15.9948 15.0558 16.0168 15.1552 16.0186 15.2559C16.0204 15.3566 16.0018 15.4566 15.9641 15.55C15.9264 15.6434 15.8703 15.7282 15.799 15.7994C15.7278 15.8706 15.643 15.9268 15.5496 15.9645C15.4562 16.0022 15.3562 16.0208 15.2555 16.019C15.1548 16.0172 15.0555 15.9952 14.9635 15.9542C14.8715 15.9132 14.7887 15.8541 14.72 15.7804L11.391 12.4524C10.3625 13.2808 9.12074 13.8013 7.80901 13.954C6.49727 14.1066 5.16912 13.885 3.97795 13.3149C2.78677 12.7448 1.78117 11.8493 1.07727 10.732C0.373379 9.61464 -8.9698e-05 8.32097 1.61595e-08 7.00039Z" fill="currentColor"></path>
  </symbol>

  <symbol xmlns="http://www.w3.org/2000/svg" viewBox="0 0 24 24" id="setting">
    <path d="M12 16C14.206 16 16 14.206 16 12C16 9.794 14.206 8 12 8C9.794 8 8 9.794 8 12C8 14.206 9.794 16 12 16ZM12 10C13.084 10 14 10.916 14 12C14 13.084 13.084 14 12 14C10.916 14 10 13.084 10 12C10 10.916 10.916 10 12 10Z" fill="currentColor"></path>
    <path d="M2.84498 16.136L3.84498 17.866C4.37598 18.783 5.65398 19.127 6.57498 18.596L7.10398 18.29C7.68252 18.7451 8.32039 19.1192 8.99998 19.402V20C8.99998 21.103 9.89698 22 11 22H13C14.103 22 15 21.103 15 20V19.402C15.6793 19.1192 16.3172 18.7454 16.896 18.291L17.425 18.597C18.348 19.127 19.623 18.785 20.156 17.866L21.155 16.137C21.42 15.6777 21.4919 15.132 21.3548 14.6197C21.2177 14.1075 20.8829 13.6706 20.424 13.405L19.919 13.113C20.0263 12.3756 20.0263 11.6264 19.919 10.889L20.424 10.597C20.8827 10.3312 21.2174 9.89433 21.3544 9.38216C21.4914 8.86998 21.4197 8.32436 21.155 7.865L20.156 6.136C19.625 5.216 18.348 4.871 17.425 5.404L16.896 5.71C16.3174 5.25491 15.6796 4.8808 15 4.598V4C15 2.897 14.103 2 13 2H11C9.89698 2 8.99998 2.897 8.99998 4V4.598C8.32062 4.88084 7.6828 5.25459 7.10398 5.709L6.57498 5.403C5.65098 4.872 4.37498 5.216 3.84398 6.135L2.84498 7.864C2.57996 8.3233 2.50809 8.86901 2.64515 9.38126C2.78222 9.89352 3.117 10.3304 3.57598 10.596L4.08098 10.888C3.97321 11.6251 3.97321 12.3739 4.08098 13.111L3.57598 13.403C3.11714 13.669 2.78251 14.106 2.64547 14.6184C2.50843 15.1307 2.58018 15.6765 2.84498 16.136ZM6.17098 13.378C6.05806 12.9273 6.00064 12.4646 5.99998 12C5.99998 11.538 6.05798 11.074 6.16998 10.622C6.22272 10.4113 6.20537 10.1892 6.12056 9.98928C6.03576 9.78935 5.88811 9.6225 5.69998 9.514L4.57698 8.864L5.57498 7.135L6.71998 7.797C6.9067 7.90505 7.12344 7.94962 7.33765 7.92401C7.55185 7.89841 7.75198 7.80401 7.90798 7.655C8.5845 7.01156 9.40031 6.53281 10.292 6.256C10.4968 6.19347 10.6761 6.06683 10.8036 5.89473C10.931 5.72263 10.9999 5.51416 11 5.3V4H13V5.3C13.0001 5.51416 13.0689 5.72263 13.1964 5.89473C13.3238 6.06683 13.5032 6.19347 13.708 6.256C14.5995 6.53321 15.4152 7.0119 16.092 7.655C16.2481 7.80372 16.4482 7.89792 16.6624 7.92352C16.8765 7.94911 17.0932 7.90473 17.28 7.797L18.424 7.136L19.424 8.865L18.3 9.514C18.112 9.62262 17.9644 9.78948 17.8796 9.98938C17.7948 10.1893 17.7774 10.4113 17.83 10.622C17.942 11.074 18 11.538 18 12C18 12.461 17.942 12.925 17.829 13.378C17.7765 13.5888 17.7941 13.8109 17.8791 14.0108C17.964 14.2107 18.1118 14.3775 18.3 14.486L19.423 15.135L18.425 16.864L17.28 16.203C17.0933 16.0948 16.8765 16.0501 16.6623 16.0757C16.448 16.1013 16.2479 16.1958 16.092 16.345C15.4155 16.9884 14.5996 17.4672 13.708 17.744C13.5032 17.8065 13.3238 17.9332 13.1964 18.1053C13.0689 18.2774 13.0001 18.4858 13 18.7L13.002 20H11V18.7C10.9999 18.4858 10.931 18.2774 10.8036 18.1053C10.6761 17.9332 10.4968 17.8065 10.292 17.744C9.40048 17.4668 8.58476 16.9881 7.90798 16.345C7.75228 16.1954 7.55203 16.1007 7.33763 16.0753C7.12322 16.0498 6.90636 16.095 6.71998 16.204L5.57598 16.866L4.57598 15.137L5.69998 14.486C5.88817 14.3775 6.03593 14.2107 6.12091 14.0108C6.20588 13.8109 6.22346 13.5888 6.17098 13.378Z" fill="currentColor"></path>
  </symbol>

  <symbol fill="none" xmlns="http://www.w3.org/2000/svg" viewBox="0 0 24 24" id="share">
    <path d="M8.59 13.51L15.42 17.49M15.41 6.51L8.59 10.49M21 5C21 6.65685 19.6569 8 18 8C16.3431 8 15 6.65685 15 5C15 3.34315 16.3431 2 18 2C19.6569 2 21 3.34315 21 5ZM9 12C9 13.6569 7.65685 15 6 15C4.34315 15 3 13.6569 3 12C3 10.3431 4.34315 9 6 9C7.65685 9 9 10.3431 9 12ZM21 19C21 20.6569 19.6569 22 18 22C16.3431 22 15 20.6569 15 19C15 17.3431 16.3431 16 18 16C19.6569 16 21 17.3431 21 19Z" stroke="currentColor" stroke-width="2" stroke-linecap="round" stroke-linejoin="round"></path>
  </symbol>

  <symbol xmlns="http://www.w3.org/2000/svg" viewBox="0 0 12 24" id="sort">
    <path d="M9 13.5H3L6 19.5L9 13.5ZM3 11.5H5H9L6 5L3 11.5Z" fill="currentColor"></path>
  </symbol>

  <symbol xmlns="http://www.w3.org/2000/svg" viewBox="0 0 19 18" id="star">
    <path fill="currentColor" d="M9.15416 1.06438C9.26302 0.72936 9.73698 0.72936 9.84584 1.06438L11.6635 6.65856C11.7122 6.80839 11.8518 6.90983 12.0093 6.90983H17.8914C18.2437 6.90983 18.3901 7.3606 18.1051 7.56765L13.3465 11.025C13.219 11.1176 13.1657 11.2818 13.2144 11.4316L15.032 17.0258C15.1409 17.3608 14.7574 17.6394 14.4724 17.4323L9.71374 13.975C9.58629 13.8824 9.41371 13.8824 9.28626 13.975L4.52757 17.4323C4.24258 17.6394 3.85913 17.3608 3.96799 17.0258L5.78565 11.4316C5.83433 11.2818 5.781 11.1176 5.65355 11.025L0.894853 7.56765C0.609866 7.3606 0.75633 6.90983 1.10859 6.90983H6.99066C7.1482 6.90983 7.28782 6.80839 7.3365 6.65856L9.15416 1.06438Z" ></path>
  </symbol>

  <symbol fill="none" xmlns="http://www.w3.org/2000/svg" viewBox="0 0 24 24" id="up-chevron">
    <path d="M18 15L12 9L6 15" stroke="currentColor" stroke-width="2" stroke-linecap="round" stroke-linejoin="round"></path>
  </symbol>

  <symbol xmlns="http://www.w3.org/2000/svg" viewBox="0 0 24 25" id="arrow-narrow-right">
    <path d="M4 12.5H20M20 12.5L14 6.5M20 12.5L14 18.5" stroke="currentColor" stroke-width="2" stroke-linecap="round" stroke-linejoin="round"></path>
  </symbol>

  <symbol xmlns="http://www.w3.org/2000/svg" viewBox="0 0 24 24" id="arrow-narrow-up">
    <path d="M12 20V4M12 4L6 10M12 4L18 10" stroke="currentColor" stroke-width="2" stroke-linecap="round" stroke-linejoin="round"></path>
  </symbol>

  <symbol fill="none" xmlns="http://www.w3.org/2000/svg" viewBox="0 0 24 24" id="award">
    <path d="M7.86866 15.4599L7 22L11.5884 19.247C11.7381 19.1572 11.8129 19.1123 11.8928 19.0947C11.9634 19.0792 12.0366 19.0792 12.1072 19.0947C12.1871 19.1123 12.2619 19.1572 12.4116 19.247L17 22L16.1319 15.4571M16.4259 4.24888C16.5803 4.6224 16.8768 4.9193 17.25 5.0743L18.5589 5.61648C18.9325 5.77121 19.2292 6.06799 19.384 6.44154C19.5387 6.81509 19.5387 7.23481 19.384 7.60836L18.8422 8.91635C18.6874 9.29007 18.6872 9.71021 18.8427 10.0837L19.3835 11.3913C19.4602 11.5764 19.4997 11.7747 19.4997 11.975C19.4998 12.1752 19.4603 12.3736 19.3837 12.5586C19.3071 12.7436 19.1947 12.9118 19.0531 13.0534C18.9114 13.195 18.7433 13.3073 18.5582 13.3839L17.2503 13.9256C16.8768 14.0801 16.5799 14.3765 16.4249 14.7498L15.8827 16.0588C15.728 16.4323 15.4312 16.7291 15.0577 16.8838C14.6841 17.0386 14.2644 17.0386 13.8909 16.8838L12.583 16.342C12.2094 16.1877 11.7899 16.188 11.4166 16.3429L10.1077 16.8843C9.73434 17.0387 9.31501 17.0386 8.94178 16.884C8.56854 16.7293 8.27194 16.4329 8.11711 16.0598L7.57479 14.7504C7.42035 14.3769 7.12391 14.08 6.75064 13.925L5.44175 13.3828C5.06838 13.2282 4.77169 12.9316 4.61691 12.5582C4.46213 12.1849 4.46192 11.7654 4.61633 11.3919L5.1581 10.0839C5.31244 9.71035 5.31213 9.29079 5.15722 8.91746L4.61623 7.60759C4.53953 7.42257 4.50003 7.22426 4.5 7.02397C4.49997 6.82369 4.5394 6.62536 4.61604 6.44032C4.69268 6.25529 4.80504 6.08716 4.94668 5.94556C5.08832 5.80396 5.25647 5.69166 5.44152 5.61508L6.74947 5.07329C7.12265 4.91898 7.41936 4.6229 7.57448 4.25004L8.11664 2.94111C8.27136 2.56756 8.56813 2.27078 8.94167 2.11605C9.3152 1.96132 9.7349 1.96132 10.1084 2.11605L11.4164 2.65784C11.7899 2.81218 12.2095 2.81187 12.5828 2.65696L13.8922 2.11689C14.2657 1.96224 14.6853 1.96228 15.0588 2.11697C15.4322 2.27167 15.729 2.56837 15.8837 2.94182L16.426 4.25115L16.4259 4.24888Z" stroke="currentColor" stroke-width="2" stroke-linecap="round" stroke-linejoin="round"></path>
  </symbol>

  <symbol xmlns="http://www.w3.org/2000/svg" viewBox="0 0 24 24" id="back">
    <path d="M17.9999 5.99997H19.9999V18H17.9999V5.99997ZM15.9999 11H7.41394L11.7069 6.70697L10.2929 5.29297L3.58594 12L10.2929 18.707L11.7069 17.293L7.41394 13H15.9999V11Z" fill="currentColor"></path>
  </symbol>

  <symbol xmlns="http://www.w3.org/2000/svg" viewBox="0 0 24 24" id="chat">
    <path d="M5 18V21.766L6.515 20.857L11.277 18H16C17.103 18 18 17.103 18 16V8C18 6.897 17.103 6 16 6H4C2.897 6 2 6.897 2 8V16C2 17.103 2.897 18 4 18H5ZM4 8H16V16H10.723L7 18.234V16H4V8Z" fill="currentColor"></path>
    <path d="M20 2H8C6.897 2 6 2.897 6 4H18C19.103 4 20 4.897 20 6V14C21.103 14 22 13.103 22 12V4C22 2.897 21.103 2 20 2Z" fill="currentColor"></path>
  </symbol>

  <symbol fill="none" xmlns="http://www.w3.org/2000/svg" viewBox="0 0 24 24" id="down-chevron">
    <path d="M6 9L12 15L18 9" stroke="currentColor" stroke-width="2" stroke-linecap="round" stroke-linejoin="round"></path>
  </symbol>

  <symbol xmlns="http://www.w3.org/2000/svg" viewBox="0 0 24 24" id="x">
    <path d="M17 7L7 17M7 7L17 17" stroke="currentColor" stroke-linecap="round" stroke-linejoin="round"></path>
  </symbol>

  <symbol xmlns="http://www.w3.org/2000/svg" viewBox="0 0 24 24" id="course">
    <path d="M6 22H21V20H6.012C5.55 19.988 5 19.805 5 19C5 18.195 5.55 18.012 6.012 18H21V4C21 2.897 20.103 2 19 2H6C4.794 2 3 2.799 3 5V19C3 21.201 4.794 22 6 22ZM5 8V5C5 4.195 5.55 4.012 6 4H19V16H5V8Z" fill="currentColor"></path>
    <path d="M8 6H17V8H8V6Z" fill="currentColor"></path>
  </symbol>

  <symbol fill="none" xmlns="http://www.w3.org/2000/svg" viewBox="0 0 24 24" id="add-image">
    <path d="M12.5 3H7.8C6.11984 3 5.27976 3 4.63803 3.32698C4.07354 3.6146 3.6146 4.07354 3.32698 4.63803C3 5.27976 3 6.11984 3 7.8V16.2C3 17.8802 3 18.7202 3.32698 19.362C3.6146 19.9265 4.07354 20.3854 4.63803 20.673C5.27976 21 6.11984 21 7.8 21H17C17.93 21 18.395 21 18.7765 20.8978C19.8117 20.6204 20.6204 19.8117 20.8978 18.7765C21 18.395 21 17.93 21 17M19 8V2M16 5H22M10.5 8.5C10.5 9.60457 9.60457 10.5 8.5 10.5C7.39543 10.5 6.5 9.60457 6.5 8.5C6.5 7.39543 7.39543 6.5 8.5 6.5C9.60457 6.5 10.5 7.39543 10.5 8.5ZM14.99 11.9181L6.53115 19.608C6.05536 20.0406 5.81747 20.2568 5.79643 20.4442C5.77819 20.6066 5.84045 20.7676 5.96319 20.8755C6.10478 21 6.42628 21 7.06929 21H16.456C17.8951 21 18.6147 21 19.1799 20.7582C19.8894 20.4547 20.4547 19.8894 20.7582 19.1799C21 18.6147 21 17.8951 21 16.456C21 15.9717 21 15.7296 20.9471 15.5042C20.8805 15.2208 20.753 14.9554 20.5733 14.7264C20.4303 14.5442 20.2412 14.3929 19.8631 14.0905L17.0658 11.8527C16.6874 11.5499 16.4982 11.3985 16.2898 11.3451C16.1061 11.298 15.9129 11.3041 15.7325 11.3627C15.5279 11.4291 15.3486 11.5921 14.99 11.9181Z" stroke="currentColor" stroke-width="2" stroke-linecap="round" stroke-linejoin="round"></path>
  </symbol>

  <symbol fill="none" xmlns="http://www.w3.org/2000/svg" viewBox="0 0 41 40" id="briefcase">
    <path d="M14.1665 35V11.6667C14.1665 10.1167 14.1665 9.34174 14.3369 8.7059C14.7992 6.98044 16.1469 5.63271 17.8724 5.17037C18.5082 5 19.2832 5 20.8332 5C22.3831 5 23.1581 5 23.7939 5.17037C25.5194 5.63271 26.8671 6.98044 27.3295 8.7059C27.4998 9.34174 27.4998 10.1167 27.4998 11.6667V35M9.49984 35H32.1665C34.0333 35 34.9668 35 35.6798 34.6367C36.307 34.3171 36.8169 33.8072 37.1365 33.18C37.4998 32.4669 37.4998 31.5335 37.4998 29.6667V17C37.4998 15.1332 37.4998 14.1997 37.1365 13.4867C36.8169 12.8595 36.307 12.3496 35.6798 12.03C34.9668 11.6667 34.0333 11.6667 32.1665 11.6667H9.49984C7.633 11.6667 6.69957 11.6667 5.98654 12.03C5.35933 12.3496 4.84939 12.8595 4.52982 13.4867C4.1665 14.1997 4.1665 15.1332 4.1665 17V29.6667C4.1665 31.5335 4.1665 32.4669 4.52982 33.18C4.84939 33.8072 5.35933 34.3171 5.98654 34.6367C6.69957 35 7.633 35 9.49984 35Z" stroke="currentColor" stroke-width="3.33333" stroke-linecap="round" stroke-linejoin="round"></path>
  </symbol>

  <symbol fill="none" xmlns="http://www.w3.org/2000/svg" viewBox="0 0 24 24" id="broadcast">
    <path d="M17.1189 18C19.4623 16.4151 21 13.7779 21 10.785C21 5.9333 16.9704 2 12 2C7.02958 2 3 5.9333 3 10.785C3 13.7779 4.53771 16.4151 6.88113 18M8.35967 14C7.51875 13.15 7 12.0086 7 10.7505C7 8.12711 9.23881 6 12 6C14.7612 6 17 8.12711 17 10.7505C17 12.0095 16.4813 13.15 15.6403 14M12 22C10.8954 22 10 21.1046 10 20V18C10 16.8954 10.8954 16 12 16C13.1046 16 14 16.8954 14 18V20C14 21.1046 13.1046 22 12 22ZM13 11C13 11.5523 12.5523 12 12 12C11.4477 12 11 11.5523 11 11C11 10.4477 11.4477 10 12 10C12.5523 10 13 10.4477 13 11Z" stroke="currentColor" stroke-linecap="round" stroke-linejoin="round"></path>
  </symbol>

  <symbol xmlns="http://www.w3.org/2000/svg" viewBox="0 0 24 24" id="dollar">
    <path d="M12 2C10.0222 2 8.08879 2.58649 6.4443 3.6853C4.79981 4.78412 3.51809 6.3459 2.76121 8.17317C2.00433 10.0004 1.8063 12.0111 2.19215 13.9509C2.578 15.8907 3.53041 17.6725 4.92894 19.0711C6.32746 20.4696 8.10929 21.422 10.0491 21.8079C11.9889 22.1937 13.9996 21.9957 15.8268 21.2388C17.6541 20.4819 19.2159 19.2002 20.3147 17.5557C21.4135 15.9112 22 13.9778 22 12C22 10.6868 21.7413 9.38642 21.2388 8.17317C20.7363 6.95991 19.9997 5.85752 19.0711 4.92893C18.1425 4.00035 17.0401 3.26375 15.8268 2.7612C14.6136 2.25866 13.3132 2 12 2ZM12 20C10.4178 20 8.87104 19.5308 7.55544 18.6518C6.23985 17.7727 5.21447 16.5233 4.60897 15.0615C4.00347 13.5997 3.84504 11.9911 4.15372 10.4393C4.4624 8.88743 5.22433 7.46197 6.34315 6.34315C7.46197 5.22433 8.88743 4.4624 10.4393 4.15372C11.9911 3.84504 13.5997 4.00346 15.0615 4.60896C16.5233 5.21447 17.7727 6.23984 18.6518 7.55544C19.5308 8.87103 20 10.4177 20 12C20 14.1217 19.1572 16.1566 17.6569 17.6569C16.1566 19.1571 14.1217 20 12 20Z" fill="currentColor"></path>
    <path d="M12 11C10 11 10 10.37 10 10C10 9.63 10.7 9 12 9C13.3 9 13.39 9.64 13.4 10H15.4C15.3865 9.31875 15.1415 8.66241 14.7053 8.13896C14.269 7.61551 13.6676 7.25614 13 7.12V6H11V7.09C9 7.42 8 8.71 8 10C8 11.12 8.52 13 12 13C14 13 14 13.68 14 14C14 14.32 13.38 15 12 15C10.16 15 10 14.14 10 14H8C8 14.92 8.66 16.55 11 16.92V18H13V16.92C15 16.58 16 15.29 16 14C16 12.88 15.48 11 12 11Z" fill="currentColor"></path>
  </symbol>

  <symbol fill="none" xmlns="http://www.w3.org/2000/svg" viewBox="0 0 41 40" id="code-browser">
    <path d="M37.3333 15H4M24 29.1667L28.1667 25L24 20.8333M17.3333 20.8333L13.1667 25L17.3333 29.1667M4 13L4 27C4 29.8003 4 31.2004 4.54497 32.2699C5.02433 33.2108 5.78924 33.9757 6.73005 34.455C7.79961 35 9.19974 35 12 35H29.3333C32.1336 35 33.5337 35 34.6033 34.455C35.5441 33.9757 36.309 33.2108 36.7884 32.27C37.3333 31.2004 37.3333 29.8003 37.3333 27V13C37.3333 10.1997 37.3333 8.79961 36.7884 7.73005C36.309 6.78924 35.5441 6.02434 34.6033 5.54497C33.5337 5 32.1336 5 29.3333 5L12 5C9.19974 5 7.79961 5 6.73005 5.54497C5.78924 6.02433 5.02433 6.78924 4.54497 7.73005C4 8.79961 4 10.1997 4 13Z" stroke="currentColor" stroke-width="3.33333" stroke-linecap="round" stroke-linejoin="round"></path>
  </symbol>

  <symbol fill="none" xmlns="http://www.w3.org/2000/svg" viewBox="0 0 24 24" id="cart">
    <path d="M5.00014 14H18.1359C19.1487 14 19.6551 14 20.0582 13.8112C20.4134 13.6448 20.7118 13.3777 20.9163 13.0432C21.1485 12.6633 21.2044 12.16 21.3163 11.1534L21.9013 5.88835C21.9355 5.58088 21.9525 5.42715 21.9031 5.30816C21.8597 5.20366 21.7821 5.11697 21.683 5.06228C21.5702 5 21.4155 5 21.1062 5H4.50014M2 2H3.24844C3.51306 2 3.64537 2 3.74889 2.05032C3.84002 2.09463 3.91554 2.16557 3.96544 2.25376C4.02212 2.35394 4.03037 2.48599 4.04688 2.7501L4.95312 17.2499C4.96963 17.514 4.97788 17.6461 5.03456 17.7462C5.08446 17.8344 5.15998 17.9054 5.25111 17.9497C5.35463 18 5.48694 18 5.75156 18H19M7.5 21.5H7.51M16.5 21.5H16.51M8 21.5C8 21.7761 7.77614 22 7.5 22C7.22386 22 7 21.7761 7 21.5C7 21.2239 7.22386 21 7.5 21C7.77614 21 8 21.2239 8 21.5ZM17 21.5C17 21.7761 16.7761 22 16.5 22C16.2239 22 16 21.7761 16 21.5C16 21.2239 16.2239 21 16.5 21C16.7761 21 17 21.2239 17 21.5Z" stroke="currentColor" stroke-width="2" stroke-linecap="round" stroke-linejoin="round"></path>
  </symbol>

  <symbol xmlns="http://www.w3.org/2000/svg" viewBox="0 0 24 24" id="dashboard">
    <path d="M12 4C6.486 4 2 8.486 2 14C1.99871 15.5434 2.35864 17.0656 3.051 18.445C3.221 18.785 3.567 19 3.946 19H20.053C20.432 19 20.779 18.785 20.949 18.445C21.6414 17.0656 22.0013 15.5434 22 14C22 8.486 17.514 4 12 4ZM19.41 17H4.59C4.19924 16.0481 3.99879 15.0289 4 14C4 9.589 7.589 6 12 6C16.411 6 20 9.589 20 14C20.0012 15.0289 19.8008 16.0481 19.41 17Z" fill="currentColor"></path>
    <path d="M10.9387 12.939C10.726 13.0781 10.5513 13.268 10.4303 13.4916C10.3094 13.7151 10.2461 13.9653 10.2461 14.2195C10.2461 14.4737 10.3094 14.7238 10.4303 14.9474C10.5513 15.171 10.726 15.3609 10.9387 15.5C11.1068 15.6106 11.295 15.6869 11.4927 15.7247C11.6903 15.7624 11.8935 15.7608 12.0905 15.72C12.2875 15.6791 12.4745 15.5998 12.6408 15.4865C12.8071 15.3733 12.9495 15.2283 13.0597 15.06L17.0217 9.02199C17.0249 9.01671 17.0266 9.01066 17.0266 9.00449C17.0266 8.99833 17.0249 8.99228 17.0217 8.98699C17.017 8.97978 17.0096 8.9747 17.0012 8.97283C16.9928 8.97096 16.984 8.97246 16.9767 8.97699L10.9387 12.939Z" fill="currentColor"></path>
  </symbol>

  <symbol fill="none" xmlns="http://www.w3.org/2000/svg" viewBox="0 0 41 40" id="telescope">
    <path d="M22.3696 24.7409L30.5007 36.6664M18.6317 24.7409L10.5007 36.6664M23.834 21.9998C23.834 23.8407 22.3416 25.3331 20.5007 25.3331C18.6597 25.3331 17.1673 23.8407 17.1673 21.9998C17.1673 20.1588 18.6597 18.6665 20.5007 18.6665C22.3416 18.6665 23.834 20.1588 23.834 21.9998ZM29.0815 7.55358L9.44103 12.8162C8.99023 12.937 8.76482 12.9974 8.61614 13.1313C8.48536 13.2491 8.39522 13.4052 8.35863 13.5773C8.31703 13.773 8.37743 13.9984 8.49822 14.4492L9.96487 19.9228C10.0857 20.3736 10.1461 20.599 10.2799 20.7477C10.3977 20.8785 10.5538 20.9686 10.726 21.0052C10.9216 21.0468 11.1471 20.9864 11.5979 20.8656L31.2384 15.603L29.0815 7.55358ZM36.8213 15.8325C35.0181 16.3156 34.1165 16.5572 33.3337 16.3909C32.6452 16.2445 32.0206 15.8839 31.5496 15.3608C31.0141 14.7661 30.7725 13.8645 30.2893 12.0612L30.0305 11.0953C29.5474 9.29208 29.3058 8.39047 29.4722 7.60769C29.6185 6.91914 29.9791 6.2946 30.5022 5.82358C31.0969 5.2881 31.9985 5.04651 33.8018 4.56334C34.2526 4.44255 34.478 4.38215 34.6737 4.42374C34.8458 4.46033 35.0019 4.55048 35.1197 4.68126C35.2536 4.82994 35.314 5.05534 35.4348 5.50615L37.7641 14.1995C37.8849 14.6503 37.9453 14.8757 37.9037 15.0714C37.8671 15.2435 37.777 15.3997 37.6462 15.5174C37.4975 15.6513 37.2721 15.7117 36.8213 15.8325ZM6.33686 20.5498L8.59069 19.9459C9.0415 19.8251 9.2669 19.7647 9.41558 19.6309C9.54636 19.5131 9.63651 19.357 9.67309 19.1848C9.71469 18.9891 9.65429 18.7637 9.5335 18.3129L8.92959 16.0591C8.8088 15.6083 8.7484 15.3829 8.61453 15.2342C8.49677 15.1034 8.34064 15.0133 8.1685 14.9767C7.97281 14.9351 7.7474 14.9955 7.2966 15.1163L5.04277 15.7202C4.59196 15.841 4.36656 15.9014 4.21788 16.0353C4.0871 16.153 3.99695 16.3092 3.96037 16.4813C3.91877 16.677 3.97917 16.9024 4.09996 17.3532L4.70387 19.607C4.82466 20.0578 4.88506 20.2832 5.01893 20.4319C5.13669 20.5627 5.29282 20.6528 5.46496 20.6894C5.66065 20.731 5.88606 20.6706 6.33686 20.5498Z" stroke="currentColor" stroke-width="3.33333" stroke-linecap="round" stroke-linejoin="round"></path>
  </symbol>

  <symbol xmlns="http://www.w3.org/2000/svg" xmlns:xlink="http://www.w3.org/1999/xlink" viewBox="0,0,256,256" id="facebook">
    <g fill="none" fill-rule="nonzero" stroke="none" stroke-width="1" stroke-linecap="butt" stroke-linejoin="miter" stroke-miterlimit="10" stroke-dasharray="" stroke-dashoffset="0" font-family="none" font-weight="none" font-size="none" text-anchor="none">
      <g transform="scale(5.33333,5.33333)">
        <path d="M24,5c-10.49341,0 -19,8.50659 -19,19c0,10.49341 8.50659,19 19,19c10.49341,0 19,-8.50659 19,-19c0,-10.49341 -8.50659,-19 -19,-19z" fill="#0866ff"></path>
        <path d="M26.572,29.036h4.917l0.772,-4.995h-5.69v-2.73c0,-2.075 0.678,-3.915 2.619,-3.915h3.119v-4.359c-0.548,-0.074 -1.707,-0.236 -3.897,-0.236c-4.573,0 -7.254,2.415 -7.254,7.917v3.323h-4.701v4.995h4.701v13.729c0.931,0.14 1.874,0.235 2.842,0.235c0.875,0 1.729,-0.08 2.572,-0.194z" fill="#ffffff"></path>
      </g>
    </g>
  </symbol>
</svg>